<svg height="512" viewBox="0 0 64 64" width="512" xmlns="http://www.w3.org/2000/svg"><g id="Blue"><path d="m37 43h-10v-2h6.7l-9.252-6.168a1 1 0 0 1 .552-1.832h9.764l-10.211-5.1.894-1.79 14 7a1 1 0 0 1 -.447 1.89h-10.7l9.252 6.168a1 1 0 0 1 -.552 1.832z" fill="#4f83d1"/><path d="m29 47c0-4.418-5.82-10-13-10s-13 5.582-13 10v14h26z" fill="#cdeef6"/><path d="m35 47c0-4.418 5.82-10 13-10s13 5.582 13 10v14h-26z" fill="#cdeef6"/><path d="m32 3h8v4h-8z" fill="#7cb8eb"/><path d="m31 3h2v9h-2z" fill="#4f83d1"/><path d="m40 15h-16v-3l2-1h12l2 1z" fill="#7cb8eb"/><path d="m26 15h12v8h-12z" fill="#cdeef6"/><path d="m24 23h16v4h-16z" fill="#7cb8eb"/><path d="m11 53h10v8h-10z" fill="#7cb8eb"/><path d="m19 45h6v4h-6z" fill="#7cb8eb"/><path d="m7 45h6v4h-6z" fill="#7cb8eb"/><path d="m6 56h2v2h-2z" fill="#4f83d1"/><path d="m24 56h2v2h-2z" fill="#4f83d1"/><path d="m18 37.16a13.861 13.861 0 0 0 -2-.16 13.861 13.861 0 0 0 -2 .16v3.84h4z" fill="#fff"/><path d="m6 52h2v2h-2z" fill="#4f83d1"/><path d="m43 53h10v8h-10z" fill="#7cb8eb" transform="matrix(-1 0 0 -1 96 114)"/><path d="m39 45h6v4h-6z" fill="#7cb8eb" transform="matrix(-1 0 0 -1 84 94)"/><path d="m51 45h6v4h-6z" fill="#7cb8eb" transform="matrix(-1 0 0 -1 108 94)"/><path d="m56 56h2v2h-2z" fill="#4f83d1"/><path d="m38 56h2v2h-2z" fill="#4f83d1"/><path d="m46 37.16a12.58 12.58 0 0 1 4 0v3.84h-4z" fill="#fff"/><g fill="#4f83d1"><path d="m56 52h2v2h-2z"/><path d="m18.424 32.5h13.153v2h-13.153z" transform="matrix(.152 -.988 .988 .152 -11.908 53.122)"/><path d="m38 26.924h2v13.153h-2z" transform="matrix(.988 -.152 .152 .988 -4.64 6.32)"/><path d="m11 40h10v2h-10z"/><path d="m43 40h10v2h-10z"/><path d="m18 50h8v-6h-8zm2-4h4v2h-4z"/><path d="m6 50h8v-6h-8zm2-4h4v2h-4z"/><path d="m6 56h2v2h-2z"/><path d="m24 56h2v2h-2z"/><path d="m6 52h2v2h-2z"/><path d="m38 50h8v-6h-8zm2-4h4v2h-4z"/><path d="m50 50h8v-6h-8zm2-4h4v2h-4z"/><path d="m56 56h2v2h-2z"/><path d="m38 56h2v2h-2z"/><path d="m48 36a15.364 15.364 0 0 0 -7.314 1.886l-1.521-9.886h1.835v-6h-2v-6h2v-4.618l-2.764-1.382h-5.236v-2h8v-6h-10v8h-5.236l-2.764 1.382v4.618h2v6h-2v6h1.764l.065.033-1.515 9.853a15.364 15.364 0 0 0 -7.314-1.886c-7.755 0-14 6.018-14 11v15h28v-15a8.057 8.057 0 0 0 -1.209-4h6.418a8.047 8.047 0 0 0 -1.209 4v15h28v-15c0-4.982-6.245-11-14-11zm-9-30h-6v-2h6zm10 32.048v1.952h-2v-1.952c.33-.025.661-.048 1-.048s.67.023 1 .048zm-11.2-5.766-8.564-4.282h7.906zm-12.8-19.664 1.236-.618h11.528l1.236.618v1.382h-14zm2 3.382h10v6h-10zm-2 8h14v2h-14zm9.764 9h-8.675l.619-4.028zm-17.764 5.048v1.952h-2v-1.952c.33-.025.661-.048 1-.048s.67.023 1 .048zm-5 21.952v-6h8v6zm16 0h-6v-8h-12v8h-6v-13c0-3.078 3.641-7.406 9-8.646v1.646h-2v2h10v-2h-2v-1.646c5.359 1.24 9 5.568 9 8.646zm-.689-19a14.447 14.447 0 0 0 -2.154-1.948l.523-3.4 8.02 5.348zm.992-6h9.916l.624 4.052a14.531 14.531 0 0 0 -1.92 1.7zm15.697 25v-6h8v6zm16 0h-6v-8h-12v8h-6v-13c0-3.078 3.641-7.406 9-8.646v1.646h-2v2h10v-2h-2v-1.646c5.359 1.24 9 5.568 9 8.646z"/><path d="m56 52h2v2h-2z"/></g></g></svg>