<?xml version="1.0" standalone="no"?>
<!DOCTYPE svg PUBLIC "-//W3C//DTD SVG 20010904//EN"
 "http://www.w3.org/TR/2001/REC-SVG-20010904/DTD/svg10.dtd">
<svg version="1.0" xmlns="http://www.w3.org/2000/svg"
 width="512.000000pt" height="512.000000pt" viewBox="0 0 512.000000 512.000000"
 preserveAspectRatio="xMidYMid meet">

<g transform="translate(0.000000,512.000000) scale(0.100000,-0.100000)"
fill="#000000" stroke="none">
<path d="M2640 4815 l0 -225 315 0 c252 0 314 3 308 13 -4 7 -39 58 -76 113
l-68 101 76 112 76 111 -315 0 -316 0 0 -225z"/>
<path d="M2056 3824 c-275 -272 -497 -496 -494 -499 2 -3 451 -2 997 2 l993 6
-244 244 c-134 135 -358 356 -498 492 l-255 248 -499 -493z"/>
<path d="M2486 3025 c-46 -16 -99 -65 -123 -114 -16 -32 -18 -66 -18 -291 l0
-255 215 0 215 0 0 255 c0 287 -2 298 -75 364 -60 54 -137 69 -214 41z"/>
<path d="M765 1913 c-47 -24 -86 -64 -106 -108 -17 -36 -19 -68 -19 -292 l0
-253 216 0 215 0 -3 258 c-3 241 -4 260 -25 297 -27 50 -58 80 -105 100 -48
19 -134 19 -173 -2z"/>
<path d="M4130 1914 c-46 -20 -77 -50 -103 -99 -21 -37 -22 -56 -25 -297 l-3
-258 215 0 216 0 0 258 0 257 -29 50 c-52 92 -174 131 -271 89z"/>
<path d="M2478 1279 c-162 -24 -315 -137 -386 -283 -55 -114 -57 -135 -57
-581 l0 -410 525 0 525 0 0 410 c0 450 -2 468 -60 585 -100 200 -323 313 -547
279z"/>
</g>
</svg>
