<?xml version="1.0" encoding="iso-8859-1"?>
<!-- Generator: Adobe Illustrator 19.0.0, SVG Export Plug-In . SVG Version: 6.00 Build 0)  -->
<svg version="1.1" id="Capa_1" xmlns="http://www.w3.org/2000/svg" xmlns:xlink="http://www.w3.org/1999/xlink" x="0px" y="0px"
	 viewBox="0 0 480 480" style="enable-background:new 0 0 480 480;" xml:space="preserve">
<path style="fill:#008100;" d="M432,4L432,4c22.091,0,40,17.909,40,40v64c0,22.091-17.909,40-40,40l0,0c-22.091,0-40-17.909-40-40
	V44C392,21.909,409.909,4,432,4z"/>
<path style="fill:#763A02;" d="M424,92h16v144h-16V92z"/>
<path style="fill:#DE0418;" d="M360,356H24V212l80-112l88-32l88,32l80,112V356z"/>
<g>
	<path style="fill:#A3021A;" d="M152,124h80v56h-80V124z"/>
	<path style="fill:#A3021A;" d="M112,212h80v144h-80V212z"/>
</g>
<path style="fill:#FADBB7;" d="M8,196L88,84l104-40l104,40l80,112l-24,24l-80-112l-80-32l-80,32L32,220L8,196z"/>
<path style="fill:#A3021A;" d="M472,356H360V212l112,32V356z"/>
<path style="fill:#DE0418;" d="M392,276h48v32h-48V276z"/>
<path style="fill:#7A0212;" d="M192,212h80v144h-80V212z"/>
<g>
	<path style="fill:#FADBB7;" d="M161.152,284L192,228.472V212h-9.152L152,267.528L121.152,212H112v16.472L142.848,284L112,339.528
		V356h9.152L152,300.472L182.848,356H192v-16.472L161.152,284z"/>
	<path style="fill:#FADBB7;" d="M205.952,152L232,133.768V124h-13.952L192,142.232L165.952,124H152v9.768L178.048,152L152,170.232
		V180h13.952L192,161.768L218.048,180H232v-9.768L205.952,152z"/>
</g>
<g>
	<path style="fill:#763A02;" d="M112,428v-16H96v-16H80v16H64v-16H48v16H32v-16H16v16H0v16h16v16H0v16h16v16h16v-16h16v16h16v-16h16
		v16h16v-16h16v-16H96v-16H112z M32,444v-16h16v16H32z M80,444H64v-16h16V444z"/>
	<path style="fill:#763A02;" d="M480,428v-16h-16v-16h-16v16h-16v-16h-16v16h-16v-16h-16v16h-16v-16h-16v16h-16v-16h-16v16h-16v-16
		h-16v16h-16v16h16v16h-16v16h16v16h16v-16h16v16h16v-16h16v16h16v-16h16v16h16v-16h16v16h16v-16h16v16h16v-16h16v-16h-16v-16H480z
		 M304,444v-16h16v16H304z M336,444v-16h16v16H336z M368,444v-16h16v16H368z M400,444v-16h16v16H400z M448,444h-16v-16h16V444z"/>
</g>
<path style="fill:#FADBB7;" d="M241.152,284L272,228.472V212h-9.152L232,267.528L201.152,212H192v16.472L222.848,284L192,339.528
	V356h9.152L232,300.472L262.848,356H272v-16.472L241.152,284z"/>
<g>
</g>
<g>
</g>
<g>
</g>
<g>
</g>
<g>
</g>
<g>
</g>
<g>
</g>
<g>
</g>
<g>
</g>
<g>
</g>
<g>
</g>
<g>
</g>
<g>
</g>
<g>
</g>
<g>
</g>
</svg>
