<svg id="Layer_1" enable-background="new 0 0 512 512" height="512" viewBox="0 0 512 512" width="512" xmlns="http://www.w3.org/2000/svg"><g><g><path clip-rule="evenodd" d="m144.193 208.514c1.956 3.175 6.179 4.195 9.354 2.239l21.202-13.067c1.757-25.681-5.386-38.408-22.563-41.526l-23.356 14.371c-3.203 1.956-4.195 6.179-2.239 9.354z" fill="#ffe07d" fill-rule="evenodd"/></g><g><path clip-rule="evenodd" d="m188.071 244.995c23.575 6.007 47.358-6.976 67.908-20.129 20.975-12.415 38.244-27.235 41.56-47.221-12.387-9.212-25.425-21.032-36.225-33.193-6.151-6.945-11.565-13.974-15.703-20.721l-11.168-18.17-6.916-11.225c-3.005-4.875-9.467-6.406-14.343-3.401l-32.228 19.814-32.256 19.843c-4.875 3.005-6.434 9.467-3.401 14.343l6.888 11.225 11.168 18.17c4.167 6.746 7.993 14.768 11.395 23.357 6.008 15.136 10.656 32.087 13.321 47.308z" fill="#365e7d" fill-rule="evenodd"/></g><g><path clip-rule="evenodd" d="m269.988 255.511c26.304-15.562 50.567-34.412 57.03-48.783 2.523-5.612-.397-11.82-6.661-14.796-6.746-3.203-14.654-8.192-22.818-14.286-10.403 12.671-30.102 27.184-51.078 39.599-20.55 13.152-42.404 24.179-58.391 27.75 1.531 8.816 2.409 17.064 2.466 24.009l26.899 14.995 29.507-14.995c7.598-4.025 15.421-8.617 23.046-13.493z" fill="#f9f6f6" fill-rule="evenodd"/></g><g><path clip-rule="evenodd" d="m172.679 504.5h89.513 32.03c19.327-12.869 65.618-72.437 65.618-94.901-8.163-40.364-8.163-81.749-8.163-128.519 0-6.633-5.442-12.075-12.075-12.075h-32.653-60.006-7.143-22.364-26.899-50.511c-6.633 0-12.075 5.442-12.075 12.075 0 66.612 0 122.34-23.583 179.683-9.325 22.733-27.466 12.047-27.466 38.777 0 2.721 2.211 4.961 4.96 4.961h19.388 36.678 34.751z" fill="#d09080" fill-rule="evenodd"/></g><g><path clip-rule="evenodd" d="m261.314 144.453 155.614-95.752c3.203-1.956 4.195-6.151 2.239-9.354l-17.602-28.601c-1.219-1.984-3.288-3.118-5.442-3.231h-.765c-1.077.057-2.154.397-3.146.992l-157.768 97.056c-3.941 23.895 4.251 35.404 26.87 38.89z" fill="#ffe07d" fill-rule="evenodd"/></g><g><path clip-rule="evenodd" d="m153.547 210.754 21.202-13.067c-2.154-5.442-4.479-10.658-6.945-15.477l-23.044 14.23c-3.203 1.956-7.398.964-9.382-2.239l8.815 14.315c1.956 3.173 6.179 4.193 9.354 2.238z" fill="#ffd064" fill-rule="evenodd"/></g><g><path clip-rule="evenodd" d="m261.314 144.453 155.614-95.752c3.203-1.956 4.195-6.151 2.239-9.354l-8.787-14.286c1.927 3.203.935 7.398-2.239 9.354l-157.456 96.857c3.146 4.366 6.746 8.787 10.629 13.181z" fill="#ffd064" fill-rule="evenodd"/></g><g><path clip-rule="evenodd" d="m203.292 97.002c24.887 40.421 39.399 69.617 75.057 98.7 7.823-6.151 14.456-12.302 19.19-18.056-12.387-9.212-25.425-21.032-36.225-33.193-6.151-6.945-11.565-13.974-15.703-20.721l-11.168-18.17-6.916-11.225c-3.005-4.875-9.467-6.406-14.343-3.401z" fill="#2b4d66" fill-rule="evenodd"/></g><g><path clip-rule="evenodd" d="m395.584 445.116c32.823 0 59.411 26.56 59.411 59.384h41.979c0-55.983-45.38-101.393-101.39-101.393-12.585 0-24.632 2.296-35.743 6.491-22.563 8.504-41.299 24.831-52.892 45.693-8.135 14.57-12.727 31.35-12.727 49.208h41.979c0-32.823 26.588-59.383 59.383-59.383z" fill="#ce775f" fill-rule="evenodd"/></g><g><path clip-rule="evenodd" d="m415.794 448.631c22.874 8.277 39.201 30.16 39.201 55.869h41.979c0-51.929-39.031-94.76-89.372-100.684 4.025 13.634 6.86 28.771 8.192 44.815z" fill="#be694f" fill-rule="evenodd"/></g><g><path clip-rule="evenodd" d="m286.91 202.392c8.192 6.094 16.072 11.083 22.818 14.286 2.636 1.247 4.677 3.061 5.952 5.159 5.301-5.329 9.269-10.46 11.338-15.108 2.523-5.612-.397-11.82-6.661-14.796-6.746-3.203-14.654-8.192-22.818-14.286-4.734 5.754-11.366 11.905-19.19 18.056 2.721 2.238 5.584 4.449 8.561 6.689z" fill="#dddaec" fill-rule="evenodd"/></g><g><path clip-rule="evenodd" d="m336.201 504.5h118.794c0-32.824-26.588-59.384-59.411-59.384-32.795 0-59.383 26.56-59.383 59.384z" fill="#d8a595" fill-rule="evenodd"/></g><g><path clip-rule="evenodd" d="m16.867 340.067c-10.431 31.974 24.263 72.281 59.298 49.01.85-.567 1.672-1.134 2.466-1.729 42.943-32.541-18.594-103.008-53.799-92.747-16.411 4.79 4.961 5.952-7.965 45.466z" fill="#a7e9a6" fill-rule="evenodd"/></g><g><path clip-rule="evenodd" d="m327.074 281.079c0 46.77-.283 101.789 7.88 142.154 7.54-5.641 15.902-10.261 24.887-13.634-8.163-40.364-8.163-81.749-8.163-128.519 0-6.633-5.442-12.075-12.075-12.075h-24.632c6.507-.001 12.103 5.441 12.103 12.074z" fill="#ce775f" fill-rule="evenodd"/></g><g><path clip-rule="evenodd" d="m414.405 504.5h40.59c0-25.71-16.327-47.592-39.201-55.869.595 7.03.907 14.258.907 21.599 0 11.849-.794 23.329-2.296 34.27z" fill="#d09080" fill-rule="evenodd"/></g><g><path clip-rule="evenodd" d="m83.053 383.492c33.901-33.901-24.348-98.785-58.22-88.892-10.318 3.005-5.697 4.592-4.053 15.193 31.944-6.377 71.542 39.089 62.273 73.699z" fill="#7fdbae" fill-rule="evenodd"/></g><g><path d="m254.693 328.927v101.733c0 4.142 3.358 7.5 7.5 7.5s7.5-3.358 7.5-7.5v-101.733c0-4.142-3.358-7.5-7.5-7.5s-7.5 3.358-7.5 7.5z"/><path d="m395.584 395.608c-10.383 0-20.43 1.464-29.949 4.192-2.423-13.947-4.094-29.054-5.082-45.914-.242-4.135-3.794-7.296-7.926-7.049-4.135.242-7.291 3.79-7.049 7.926 1.083 18.497 2.97 35.008 5.748 50.259-14.135 6.317-26.685 15.563-36.878 26.962v-23.15c0-4.142-3.358-7.5-7.5-7.5s-7.5 3.358-7.5 7.5v44.621c-7.007 13.151-11.395 27.898-12.464 43.545h-17.293v-18.238c0-4.142-3.358-7.5-7.5-7.5s-7.5 3.358-7.5 7.5v18.238h-74.513v-113.933c0-4.142-3.358-7.5-7.5-7.5s-7.5 3.358-7.5 7.5v113.933h-19.751v-18.238c0-4.142-3.358-7.5-7.5-7.5s-7.5 3.358-7.5 7.5v18.238h-45.97c.398-8.289 2.943-9.799 8.42-13.046 5.623-3.335 13.325-7.902 18.427-20.339 24.146-58.714 24.146-116.095 24.146-182.536 0-2.48 2.095-4.576 4.575-4.576h25.154v73.087c0 4.142 3.358 7.5 7.5 7.5s7.5-3.358 7.5-7.5v-73.087h29.757v160.703c0 4.142 3.358 7.5 7.5 7.5s7.5-3.358 7.5-7.5v-160.702h21.992c.007 0 .014.001.022.001s.016-.001.024-.001h52.475v90.208c0 4.142 3.358 7.5 7.5 7.5s7.5-3.358 7.5-7.5v-90.208h25.153c2.48 0 4.575 2.095 4.575 4.576 0 14.027 0 27.277.228 40.353.072 4.142 3.494 7.406 7.629 7.369 4.142-.072 7.44-3.488 7.369-7.629-.226-12.946-.226-26.132-.226-40.092 0-10.794-8.781-19.575-19.575-19.575h-65.019c15.411-9.174 50.228-31.583 59.275-51.701 4.172-9.282-.249-19.877-10.286-24.647-13.883-6.588-33.992-22.05-50.512-39.123l52.502-32.297c3.528-2.17 4.629-6.789 2.458-10.318-2.17-3.528-6.789-4.628-10.318-2.458l-54.847 33.739c-4.172-5.021-7.872-10.044-10.857-14.896l-7.246-11.777 150.788-92.763 16.868 27.409-65.323 39.936c-3.534 2.161-4.647 6.777-2.487 10.311 2.161 3.533 6.777 4.648 10.311 2.487l65.885-40.28c3.256-1.96 5.551-5.083 6.46-8.794.917-3.742.318-7.611-1.701-10.917l-17.587-28.579c-1.989-3.258-5.137-5.544-8.863-6.436-3.73-.894-7.575-.282-10.822 1.718l-151.387 93.13-2.982-4.847c-2.505-4.064-6.456-6.912-11.124-8.018-4.669-1.106-9.475-.336-13.531 2.163l-64.492 39.66c-4.082 2.516-6.937 6.483-8.039 11.17-1.098 4.668-.315 9.47 2.183 13.483l2.97 4.836-16.957 10.434c-3.258 1.989-5.544 5.136-6.437 8.862-.894 3.73-.283 7.575 1.717 10.821l17.606 28.634c1.994 3.237 5.138 5.511 8.854 6.403 1.124.27 2.258.403 3.383.403 2.609 0 5.169-.718 7.437-2.116l13.447-8.288c6.299 18.084 10.517 37.654 11.737 52.653h-42.64c-10.794 0-19.575 8.782-19.575 19.575 0 48.142-.009 91.409-9.427 133.411-11.985-6.186-21.089-13.426-28.054-21.059 18.422-13.876 22.89-35.952 11.845-59.714-13.015-27.999-46.609-53.753-72.084-46.317-4.005 1.169-8.465 2.758-10.683 6.839-2.158 3.971-1.01 7.802-.087 10.88 1.511 5.04 4.039 13.477-2.222 32.615 0 .001-.001.003-.002.005-6.408 19.641 1.493 43.437 18.786 56.58 8.016 6.092 17.037 9.146 26.207 9.146 4.915 0 9.873-.881 14.74-2.639 8.874 10.456 21.018 20.421 37.789 28.542-2.693 9.544-5.923 19.046-9.83 28.545-3.198 7.796-7.371 10.27-12.203 13.136-7.05 4.181-15.825 9.384-15.825 28.488 0 6.871 5.59 12.46 12.46 12.46h415.111c4.142 0 7.5-3.358 7.5-7.5.001-60.039-48.846-108.888-108.888-108.888zm-96.965-207.93c6.645 4.609 12.968 8.393 18.519 11.028 2.089.993 3.931 2.964 3.04 4.947-5.084 11.305-25.779 28.703-54.009 45.404-.075.044-.148.09-.221.136-7.047 4.506-14.068 8.629-20.911 12.311h-47.329c-.256-3.464-.655-7.151-1.198-11.012 19.662-6.039 41.688-19.059 53.885-26.86 12.463-7.384 34.003-21.179 48.224-35.954zm-148.401 16.317-16.87-27.438 16.381-10.079 7.237 11.782c3.007 4.888 5.825 10.444 8.421 16.387zm19.526-33.591-18.078-29.431c-.536-.861-.443-1.725-.34-2.163.105-.449.416-1.284 1.303-1.831l64.49-39.659c.882-.544 1.762-.448 2.208-.341.445.105 1.273.414 1.812 1.288l18.083 29.395c10.981 17.85 29.335 36.621 47.259 50.95-9.852 9.821-25.334 21.224-43.841 32.178-.075.044-.149.09-.223.137-18.113 11.593-35.294 20.281-48.542 24.649-4.686-22.334-13.109-47.253-24.131-65.172zm-95.876 211.116c-9.864-15.546-12.905-31.289-14.987-42.071l-.211-1.094c-.789-4.066-4.726-6.729-8.79-5.935-4.066.789-6.724 4.724-5.935 8.79l.209 1.081c2.13 11.036 5.458 28.258 16.033 45.664-10.127 2.085-18.102-2.169-22.586-5.577-12.372-9.404-18.093-26.22-13.602-39.986 7.302-22.324 4.561-33.993 2.65-40.508.092-.028.188-.056.287-.085 16.223-4.729 43.106 14.207 54.278 38.241 5.733 12.337 8.934 29.341-7.346 41.48zm270.382 115.48c3.646-25.067 25.273-44.384 51.334-44.384 26.075 0 47.714 19.317 51.362 44.384zm117.813 0c-3.743-33.361-32.122-59.384-66.479-59.384-34.343 0-62.71 26.023-66.451 59.384h-27.114c3.833-48.279 44.334-86.393 93.565-86.393 49.246 0 89.759 38.114 93.593 86.393z"/></g></g></svg>