<svg id="Capa_1" enable-background="new 0 0 512.485 512.485" height="512" viewBox="0 0 512.485 512.485" width="512" xmlns="http://www.w3.org/2000/svg"><g><path d="m421.191 251.669c24.67 17.62 41.45 44.24 46.7 74.16l26.82 152.91h-476.38l26.82-152.91c5.25-29.92 22.03-56.54 46.7-74.16l-.01-.02 12.41-64.05c5.31-27.37 24.73-49.88 51.02-59.14l6.24-2.2 1.66-4.92 12.25-44.47c7.02-25.47 30.19-43.12 56.61-43.12h48.98c26.42 0 49.59 17.65 56.61 43.12l12.25 44.47 1.55 4.88 6.35 2.24c26.29 9.26 45.71 31.77 51.02 59.14l12.41 64.05z" fill="#e2e2e2"/></g><path d="m169.159 251.669-.01-.02 12.41-64.05c5.31-27.37 24.73-49.88 51.02-59.14l1.343-.473c3.091-1.09 5.509-3.541 6.557-6.646l12.25-44.47c5.729-20.786 22.23-36.361 42.46-41.388-4.558-1.133-9.319-1.732-14.177-1.732h-48.98c-26.42 0-49.59 17.65-56.61 43.12l-12.25 44.47-1.66 4.92-6.24 2.2c-26.29 9.26-45.71 31.77-51.02 59.14l-12.41 64.05.01.02c-24.67 17.62-41.45 44.24-46.7 74.16l-26.82 152.91h77.308l26.82-152.91c5.249-29.921 22.029-56.541 46.699-74.161z" fill="#cecece"/><path d="m180.378 280.384h153.45v202.113h-153.45z" fill="#9c9c9c"/><path d="m190.602 478.735v-183.241-30.338h-37.777v26.498 187.081z" fill="#d1a08f"/><path d="m360.217 478.735v-187.081-30.519h-37.777v34.359 183.241z" fill="#d1a08f"/><path d="m360.217 291.654h-207.392c-5.869 0-10.627-4.758-10.627-10.627v-21.542c0-5.869 4.758-10.627 10.627-10.627h207.393c5.869 0 10.627 4.758 10.627 10.627v21.542c0 5.869-4.758 10.627-10.628 10.627z" fill="#c68d7a"/><g><g><path d="m228.741 128.839h54.561c4.143 0 7.5-3.357 7.5-7.5s-3.357-7.5-7.5-7.5h-54.561c-4.142 0-7.5 3.357-7.5 7.5s3.358 7.5 7.5 7.5z"/><path d="m248.588 82.029h15.277c4.143 0 7.5-3.357 7.5-7.5s-3.357-7.5-7.5-7.5h-15.277c-4.142 0-7.5 3.357-7.5 7.5s3.358 7.5 7.5 7.5z"/><path d="m504.985 471.235h-3.977l-25.726-146.701c-5.37-30.627-22.497-58.476-47.266-77.159l-11.865-61.207c-5.788-29.857-27.204-54.683-55.892-64.786l-2.958-1.042c-.045-.331-.104-.662-.195-.993l-12.255-44.47c-7.892-28.631-34.145-48.628-63.844-48.628h-48.973c-29.699 0-55.952 19.997-63.843 48.629l-12.255 44.469c-.091.331-.15.662-.195.993l-2.959 1.042c-28.687 10.104-50.103 34.929-55.891 64.786l-11.865 61.207c-24.77 18.683-41.896 46.532-47.266 77.158l-25.725 146.702h-4.535c-4.142 0-7.5 3.357-7.5 7.5s3.358 7.5 7.5 7.5c0 0 10.835.001 10.843.001.007 0 476.372-.001 476.38-.001h10.263c4.143 0 7.5-3.357 7.5-7.5s-3.359-7.5-7.501-7.5zm-464.784-73.781h49.586c4.142 0 7.5-3.357 7.5-7.5s-3.358-7.5-7.5-7.5h-46.955l9.702-55.33c4.969-28.336 21.39-53.972 45.053-70.334l35.361-24.451c3.407-2.355 4.259-7.027 1.903-10.435-2.356-3.406-7.026-4.259-10.435-1.903l-21.716 15.016 8.916-45.994c4.779-24.653 22.462-45.151 46.148-53.493l29.273-10.31c3.907-1.376 5.959-5.658 4.583-9.565s-5.659-5.956-9.565-4.583l-9.17 3.229 9.767-35.439c6.104-22.146 26.41-37.613 49.382-37.613h48.973c22.972 0 43.279 15.468 49.383 37.613l9.767 35.439-9.17-3.229c-3.906-1.374-8.189.675-9.565 4.583-1.376 3.906.676 8.189 4.583 9.565l29.272 10.31c23.687 8.342 41.369 28.84 46.147 53.493l8.916 45.994-21.716-15.016c-3.408-2.358-8.079-1.503-10.435 1.903-2.355 3.407-1.504 8.079 1.903 10.435l35.361 24.451c17.688 12.23 31.327 29.643 39.163 49.49h-10.98c-4.143 0-7.5 3.357-7.5 7.5s3.357 7.5 7.5 7.5h15.668c.453 1.934.857 3.882 1.201 5.845l25.271 144.11h-118.059v-24.313h16.642c4.143 0 7.5-3.357 7.5-7.5s-3.357-7.5-7.5-7.5h-16.642v-134.412c6.259-2.86 10.628-9.165 10.628-16.484v-21.541c0-9.996-8.132-18.128-18.128-18.128h-23.216c-4.143 0-7.5 3.357-7.5 7.5s3.357 7.5 7.5 7.5h23.216c1.725 0 3.128 1.403 3.128 3.128v21.541c0 1.725-1.403 3.128-3.128 3.128h-207.392c-1.725 0-3.127-1.403-3.127-3.128v-21.541c0-1.725 1.403-3.128 3.127-3.128h152.214c4.143 0 7.5-3.357 7.5-7.5s-3.357-7.5-7.5-7.5h-152.214c-9.996 0-18.127 8.132-18.127 18.128v21.541c0 7.319 4.368 13.624 10.627 16.484v108.563h-7.133c-4.142 0-7.5 3.357-7.5 7.5s3.358 7.5 7.5 7.5h7.133v50.162h-118.061zm150.401-1.859c-4.142 0-7.5 3.357-7.5 7.5v68.14h-22.777v-172.081h22.777v71.979c0 4.143 3.358 7.5 7.5 7.5s7.5-3.357 7.5-7.5v-71.979h116.838v172.081h-116.838v-68.14c0-4.142-3.358-7.5-7.5-7.5zm139.338-96.441h22.777v172.081h-22.777z"/><path d="m184.547 178.191h13.089c4.142 0 7.5-3.357 7.5-7.5s-3.358-7.5-7.5-7.5h-13.089c-4.142 0-7.5 3.357-7.5 7.5s3.358 7.5 7.5 7.5z"/><path d="m228.741 210.278h15.689c4.142 0 7.5-3.357 7.5-7.5s-3.358-7.5-7.5-7.5h-15.689c-4.142 0-7.5 3.357-7.5 7.5s3.358 7.5 7.5 7.5z"/><path d="m305.04 199.583h17.4c4.143 0 7.5-3.357 7.5-7.5s-3.357-7.5-7.5-7.5h-17.4c-4.143 0-7.5 3.357-7.5 7.5s3.357 7.5 7.5 7.5z"/><path d="m396.844 321.28h7.13c4.143 0 7.5-3.357 7.5-7.5s-3.357-7.5-7.5-7.5h-7.13c-4.143 0-7.5 3.357-7.5 7.5s3.358 7.5 7.5 7.5z"/><path d="m426.257 383.638h7.576c4.143 0 7.5-3.357 7.5-7.5s-3.357-7.5-7.5-7.5h-7.576c-4.143 0-7.5 3.357-7.5 7.5s3.358 7.5 7.5 7.5z"/><path d="m107.614 326.747h-9.359c-4.142 0-7.5 3.357-7.5 7.5s3.358 7.5 7.5 7.5h9.359c4.142 0 7.5-3.357 7.5-7.5s-3.358-7.5-7.5-7.5z"/></g></g></svg>