<?xml version="1.0" standalone="no"?>
<!DOCTYPE svg PUBLIC "-//W3C//DTD SVG 20010904//EN"
 "http://www.w3.org/TR/2001/REC-SVG-20010904/DTD/svg10.dtd">
<svg version="1.0" xmlns="http://www.w3.org/2000/svg"
 width="512.000000pt" height="512.000000pt" viewBox="0 0 512.000000 512.000000"
 preserveAspectRatio="xMidYMid meet">

<g transform="translate(0.000000,512.000000) scale(0.100000,-0.100000)"
fill="#000000" stroke="none">
<path d="M623 4905 c-78 -21 -130 -51 -184 -105 -78 -78 -119 -182 -119 -303
0 -49 -2 -53 -30 -64 -16 -6 -34 -22 -40 -35 -7 -17 -250 -4026 -250 -4131 0
-10 11 -29 25 -42 l24 -25 1871 0 1871 0 24 25 c30 29 29 -5 5 390 -11 176
-20 335 -20 353 l0 32 410 0 c256 0 429 4 462 11 215 44 402 235 438 449 7 45
10 324 8 900 l-3 835 -23 62 c-62 166 -190 293 -355 354 -61 23 -68 23 -579
27 l-518 3 0 26 c0 15 -9 182 -21 372 -22 366 -25 385 -73 397 -21 5 -24 12
-29 87 -11 180 -98 305 -258 370 l-54 22 -1265 2 c-1067 2 -1273 0 -1317 -12z
m2602 -172 c87 -46 134 -128 135 -230 l0 -63 -1440 0 -1440 0 0 63 c1 120 68
213 180 248 14 4 588 7 1275 6 l1250 -2 40 -22z m249 -979 c3 -26 6 -62 6 -80
l0 -34 -1560 0 -1560 0 0 43 c0 23 3 59 6 80 l7 37 1547 0 1547 0 7 -46z
m1086 -1434 l0 -760 -398 0 -398 0 -42 738 c-24 405 -43 747 -42 760 l0 22
440 0 440 0 0 -760z m-918 -1400 l3 -80 -1725 0 -1725 0 3 80 4 80 1718 0
1718 0 4 -80z"/>
</g>
</svg>
