<svg height="511pt" viewBox="0 0 511.99969 511" width="511pt" xmlns="http://www.w3.org/2000/svg"><g fill-rule="evenodd"><path d="m54.613281 457.878906 42.429688-42.425781-44.617188-11.957031-42.429687 42.429687zm0 0" fill="#ff8244"/><path d="m97.042969 415.453125-42.429688 42.425781 11.957031 44.617188 39.484376-39.488282 2.941406-2.9375zm0 0" fill="#ff8244"/><path d="m241.863281 270.628906 28.285157 28.289063 28.285156-28.289063-28.285156-28.28125-28.285157-28.285156-28.285156 28.285156zm0 0" fill="#ff8244"/><path d="m213.578125 242.347656 28.285156-28.285156c32.914063-203.578125-186.007812-102.757812-231.867187-203.578125 18.40625 132.960937 245.558594 46.632813 185.863281 213.527344-2.84375 7.949219 13.175781 13.410156 17.71875 18.335937zm0 0" fill="#ffba4a"/><path d="m502.011719 502.496094c-100.824219-45.855469 0-264.78125-203.578125-231.867188l-28.285156 28.289063c4.921874 4.539062 10.382812 20.558593 18.332031 17.714843 166.898437-59.695312 80.570312 167.460938 213.53125 185.863282zm0 0" fill="#ffba4a"/><path d="m391.507812 120.984375 20.503907 41.25 22.601562-84.351563-84.351562 22.601563zm0 0" fill="#ffba4a"/></g><path d="m146.082031 81.929688.3125.066406c.679688.140625 1.359375.207031 2.027344.207031 4.636719 0 8.792969-3.238281 9.777344-7.953125 1.128906-5.394531-2.320313-10.6875-7.710938-11.828125l-.105469-.023437c-5.371093-1.140626-10.65625 2.265624-11.839843 7.628906-1.183594 5.363281 2.183593 10.675781 7.539062 11.902344zm0 0"/><path d="m398.847656 384.632812.054688.179688.011718.039062 9.566407-2.910156-9.566407 2.917969c1.316407 4.308594 5.277344 7.085937 9.566407 7.085937.960937 0 1.945312-.140624 2.914062-.4375 5.28125-1.605468 8.261719-7.191406 6.65625-12.472656l-.058593-.191406c-1.605469-5.277344-7.179688-8.257812-12.460938-6.660156-5.28125 1.59375-8.269531 7.167968-6.683594 12.449218zm0 0"/><path d="m511.917969 503.789062c.558593-4.300781-1.8125-8.597656-5.765625-10.394531-35.496094-16.144531-42.957032-58.527343-50.855469-103.402343-6.292969-35.761719-12.804687-72.746094-34.4375-98.800782-24.140625-29.074218-63.078125-39.300781-118.933594-31.210937l-17.636719-17.632813 104.453126-104.457031 14.316406 28.792969c1.699218 3.421875 5.183594 5.550781 8.949218 5.550781.332032 0 .664063-.015625 1-.050781 4.136719-.414063 7.585938-3.34375 8.664063-7.363282l22.601563-84.347656c.925781-3.453125-.0625-7.132812-2.589844-9.660156s-6.207032-3.511719-9.65625-2.589844l-84.351563 22.601563c-4.015625 1.078125-6.949219 4.527343-7.363281 8.664062-.414062 4.140625 1.777344 8.101563 5.5 9.953125l28.789062 14.3125-104.453124 104.449219-17.648438-17.644531c10.5-72.375-9.480469-115.980469-62.671875-136.976563-5.140625-2.03125-10.945313.492188-12.972656 5.628907-2.03125 5.136718.492187 10.945312 5.628906 12.972656 31.640625 12.492187 62.203125 36.226562 49.996094 117.117187l-19.949219 19.949219c-.160156-.097656-.320312-.199219-.480469-.300781-1.632812-1.015625-4.335937-2.699219-5.917969-3.996094 12.085938-34.886719 12.84375-61.933594 2.335938-82.621094-15.414062-30.335937-50.617188-40.730469-87.882812-51.734375-28.371094-8.375-55.8125-16.476562-75.03125-32.882812 21.476562 10 46.613281 14.4375 70.085937 18.578125 5.441406.960937 10.625-2.667969 11.585937-8.109375.960938-5.4375-2.671874-10.625-8.109374-11.585938-49.121094-8.667968-85.050782-17.351562-100.015626-50.253906-2.050781-4.507812-7.28125-6.859375-12.011718-5.425781-4.527344 1.378906-7.542969 5.933593-7.0351565 10.636719l41.9140625 388.257812-39.042969 39.042969c-5.347656 5.347656-2.804687 14.773437 4.484375 16.730469l39.039063 10.457031 10.460937 39.039062c1.949219 7.285157 11.378906 9.832031 16.730469 4.484375l39.039063-39.042968 388.257812 41.914062c5.332031.574219 10.289062-3.339844 10.980469-8.648438zm-91.449219-411.765624-11.273438 42.078124-8.730468-17.566406c-.015625-.027344-.03125-.050781-.046875-.078125-.0625-.121093-.132813-.242187-.199219-.363281-.082031-.148438-.167969-.292969-.257812-.433594-.070313-.113281-.140626-.222656-.21875-.332031-.109376-.160156-.222657-.3125-.339844-.464844-.070313-.085937-.132813-.175781-.203125-.257812-.394531-.476563-.832031-.914063-1.304688-1.308594-.085937-.070313-.175781-.136719-.265625-.203125-.148437-.117188-.300781-.230469-.457031-.339844-.113281-.078125-.226563-.152344-.339844-.222656-.136719-.089844-.277343-.171875-.421875-.25-.125-.070312-.25-.144531-.375-.207031-.027344-.011719-.050781-.027344-.078125-.042969l-17.566406-8.730469zm15.132812 301.4375c4.492188 25.515624 9.0625 51.496093 19.136719 73.316406-13.867187-16.300782-21.789062-38.390625-28.886719-61.621094-1.613281-5.28125-7.203124-8.253906-12.484374-6.640625s-8.257813 7.203125-6.644532 12.484375c8.246094 26.984375 18.679688 55.3125 39.023438 75.363281l-328.863282-35.503906-8.6875-32.417969 133.667969-133.667968 21.210938 21.214843c.042969.042969.089843.078125.132812.117188.046875.046875.085938.09375.132813.136719.667968.667968 2.207031 3.140624 3.226562 4.777343 4.285156 6.878907 12.257813 19.6875 25.28125 15.027344 27.972656-10.003906 49.183594-12.003906 64.851563-6.121094 12.441406 4.671875 21.976562 14.710938 30.007812 31.597657 1.710938 3.601562 5.296875 5.707031 9.035157 5.707031 1.441406 0 2.902343-.3125 4.289062-.96875 4.988281-2.375 7.109375-8.339844 4.738281-13.328125-10.398437-21.863282-23.4375-35.125-41.035156-41.730469-19.785156-7.433594-44.726563-5.746094-76.195313 5.160156-1.296874-1.585937-2.976562-4.285156-3.992187-5.917969-.101563-.160156-.203125-.320312-.304687-.484374l19.941406-19.941407c109.519531-16.535156 120.148437 43.738281 132.417968 113.441407zm-193.738281-165.257813 42.425781 42.429687-14.140624 14.140626-21.210938-21.207032s-.003906-.003906-.003906-.003906c-.003906-.003906-.003906-.003906-.003906-.007812l-21.210938-21.207032zm-198.367187-147.199219c21.132812 13.925782 46.699218 21.476563 71.425781 28.777344 33.019531 9.75 64.203125 18.957031 75.714844 41.613281 8.125 15.992188 6.753906 38.644531-4.191407 69.25-4.660156 13.019531 8.148438 20.996094 15.03125 25.28125 1.636719 1.019531 4.105469 2.558594 4.75 3.199219.042969.046875.089844.085938.132813.132812.050781.050782.09375.109376.148437.160157l21.210938 21.210937-133.664062 133.671875-32.421876-8.6875-35.492187-328.761719c5.0625 5.144532 10.839844 9.855469 17.355469 14.152344zm11.917968 333.648438 22.308594 5.976562-26.097656 26.097656-22.308594-5.980468zm16.332032 68.523437-5.976563-22.308593 26.097657-26.097657 5.976562 22.308594zm0 0"/></svg>