<?xml version="1.0" encoding="iso-8859-1"?>
<!-- Generator: Adobe Illustrator 19.0.0, SVG Export Plug-In . SVG Version: 6.00 Build 0)  -->
<svg version="1.1" id="Capa_1" xmlns="http://www.w3.org/2000/svg" xmlns:xlink="http://www.w3.org/1999/xlink" x="0px" y="0px"
	 viewBox="0 0 512.001 512.001" style="enable-background:new 0 0 512.001 512.001;" xml:space="preserve">
<path style="fill:#CC7400;" d="M5.001,506.995L5.001,506.995c-6.668-6.671-6.668-17.485,0-24.157l361.056-361.192l24.156,24.165
	L29.166,506.995C22.494,513.669,11.674,513.669,5.001,506.995z"/>
<g>
	<path style="fill:#AA6100;" d="M366.057,121.646L5.005,482.834c-6.67,6.674-6.67,17.492,0,24.165l0,0l373.13-373.27
		L366.057,121.646z"/>
	<path style="fill:#AA6100;" d="M163.995,361.63l-13.352-13.357c-6.072-6.074-6.072-15.918,0-21.992l58.824-58.846
		c6.075-6.077,15.926-6.077,22.001,0l13.352,13.357c6.072,6.074,6.072,15.918,0,21.992l-58.824,58.846
		C179.921,367.707,170.069,367.707,163.995,361.63z"/>
</g>
<path style="fill:#9A4C00;" d="M168.319,343.955l58.824-58.846c5.333-5.335,13.575-5.981,19.618-1.946
	c-0.559-0.839-1.205-1.636-1.945-2.376l-13.352-13.357c-6.073-6.075-15.919-6.075-21.992,0l-58.824,58.846
	c-6.073,6.075-6.073,15.926,0,22.001l13.352,13.357c0.74,0.74,1.537,1.387,2.375,1.946
	C162.34,357.536,162.986,349.291,168.319,343.955z"/>
<polygon style="fill:#C6C5CA;" points="357.395,178.642 333.239,154.477 394.503,93.19 418.659,117.355 "/>
<g>
	<polygon style="fill:#ACABB1;" points="406.581,105.273 394.503,93.19 333.239,154.477 345.316,166.56 	"/>
	<polygon style="fill:#ACABB1;" points="398.539,137.483 418.659,117.355 394.503,93.19 366.057,121.646 	"/>
	<polygon style="fill:#ACABB1;" points="353.36,134.348 333.239,154.477 357.395,178.642 385.841,150.185 	"/>
</g>
<g>
	<polygon style="fill:#898890;" points="366.057,121.646 382.298,129.565 406.581,105.273 394.503,93.19 	"/>
	<polygon style="fill:#898890;" points="333.239,154.477 345.316,166.56 369.6,142.267 353.36,134.348 	"/>
</g>
<path style="fill:#E0E0E2;" d="M439.08,122.033c-13.549,13.554-35.518,13.554-49.066,0s-13.549-35.531,0-49.085
	c9.449-9.452,72.635-48.791,110.016-71.739c7.017-4.307,15.067,3.748,10.762,10.766C487.853,49.371,448.529,112.581,439.08,122.033z
	"/>
<path style="fill:#D8D7DA;" d="M509.555,2.252c-2.357-2.283-6.068-3.169-9.528-1.045C462.646,24.154,399.46,63.494,390.011,72.947
	c-13.518,13.523-13.547,35.428-0.091,48.99L509.555,2.252z"/>
<path style="fill:#FFE477;" d="M355.227,196.374l-39.722-39.736c-6.908-6.911-6.908-18.221,0-25.131l0,0
	c6.914-6.917,18.227-6.917,25.141,0l39.722,39.736c6.908,6.911,6.908,18.221,0,25.131l0,0
	C373.454,203.289,362.14,203.289,355.227,196.374z"/>
<path style="fill:#FFDA44;" d="M335.858,151.856L335.858,151.856c6.911-6.914,18.22-6.914,25.131,0L340.641,131.5
	c-6.911-6.914-18.22-6.914-25.131,0l0,0c-6.911,6.914-6.911,18.227,0,25.141l20.348,20.356
	C328.947,170.083,328.947,158.77,335.858,151.856z"/>
<g>
</g>
<g>
</g>
<g>
</g>
<g>
</g>
<g>
</g>
<g>
</g>
<g>
</g>
<g>
</g>
<g>
</g>
<g>
</g>
<g>
</g>
<g>
</g>
<g>
</g>
<g>
</g>
<g>
</g>
</svg>
