<svg id="Layer_2" height="512" viewBox="0 0 128 128" width="512" xmlns="http://www.w3.org/2000/svg" data-name="Layer 2"><path d="m1.75 115.5h124.5v-52l-14.5-11.5v-17.25l-16-5.5-4-8.75-27.75-8-31.75 9.25v10.25l-18.25 8.75.25 12-12.5 7.25z" fill="#5d4037"/><path d="m111.75 52v-17.25l-16-5.5-4-8.75-27.75-8-31.75 9.25v2.128l28.748-8.376 27.75 8 4 8.75 16 5.5v17.25l14.5 11.5v48.998h3.002v-52z" fill="#4c352e"/><path d="m32.25 62.756h63.5v10.744h-63.5z" fill="#00acc1"/><path d="m29.256 115.5 10-42h10.744l-10 42z" fill="#ffca90"/><path d="m98.744 115.5-10-42h-10.744l10 42z" fill="#ffca90"/><path d="m105.247 115.5 4.128-12.125 6.25-3.75h10.625v15.875z" fill="#fb8c00"/><path d="m115.625 99.625-6.25 3.75-.343 1.006 4.591-2.754h10.625v13.873h2.002v-15.875z" fill="#ef6c00"/><path d="m1.75 98.625h10.5l7.625 6.375 7 2.875 3.125 4.501-.744 3.124h-27.506z" fill="#fb8c00"/><path d="m26.875 107.875-7-2.875-7.625-6.375h-10.5v2.002h7.498l7.625 6.375 7 2.875 3.125 4.501-.268 1.122h2.526l.744-3.124z" fill="#ef6c00"/><g fill="#4c352e"><path d="m111.75 52h-13.006a1.75 1.75 0 0 0 -1.75 1.75 1.75 1.75 0 0 0 1.75 1.75h17.419z"/><path d="m55.375 33.75a1.75 1.75 0 0 0 -1.75-1.75h-21.375l-7.3 3.5h28.675a1.75 1.75 0 0 0 1.75-1.75z"/><path d="m31.75 54.5a1.75 1.75 0 0 0 -1.75-1.75h-15.75l-6.034 3.5h21.784a1.75 1.75 0 0 0 1.75-1.75z"/></g><path d="m32.25 62.756v3h52.756a7.741 7.741 0 0 1 7.742 7.744h3v-10.744z" fill="#0097a7"/><path d="m49.087 77.333.913-3.833h-10.744l-.912 3.833z" fill="#dda976"/><path d="m89.656 77.333-.912-3.833h-10.744l.913 3.833z" fill="#dda976"/></svg>