<svg id="Layer_1" height="512" viewBox="0 0 512 512" width="512" xmlns="http://www.w3.org/2000/svg" data-name="Layer 1"><path d="m470 289.35h-174.28a4 4 0 0 0 -4 4v202.65h182.28v-202.65a4 4 0 0 0 -4-4z" fill="#c79a83"/><path d="m332.36 159.29h105.92v37.09h-105.92z" fill="#cc8f71"/><path d="m434.28 81.71h-97.92a4 4 0 0 0 -4 4v73.58h105.92v-73.58a4 4 0 0 0 -4-4z" fill="#c79a83"/><path d="m419.42 36.69a.749.749 0 0 1 .01 1.36l-34.15 15.97.5-32.37z" fill="#ef826d"/><path d="m38 280.22v45.62h133.02v-.8-44.82z" fill="#cc8f71"/><path d="m167.02 170.48h-125.02a4 4 0 0 0 -4 4v105.74h133.02v-105.74a4 4 0 0 0 -4-4z" fill="#c79a83"/><path d="m168.33 84.96a1.349 1.349 0 0 1 .02 2.45l-61.79 28.92.88-58.59z" fill="#ef826d"/><path d="m444.3 425.31v70.69h-33.88v-104.6a33.886 33.886 0 0 1 33.88 33.91z" fill="#747d83"/><path d="m410.42 391.4v104.6h-33.88v-70.69a33.9 33.9 0 0 1 33.88-33.91z" fill="#8c969b"/><path d="m396.85 126.07v11.12a1.993 1.993 0 0 1 -2 2h-22.21a2 2 0 0 1 -2-2v-11.12a13.105 13.105 0 1 1 26.21 0z" fill="#b57768"/><path d="m126.75 235.2v22.19a2 2 0 0 1 -2 2h-34.29a2 2 0 0 1 -2-2v-22.19a19.145 19.145 0 0 1 38.29 0z" fill="#b57768"/><path d="m332.36 159.29v32.09l-44.86 37.29-.05-.06-1.69-38.21-.07-.11z" fill="#cba274"/><path d="m248.53 360.99-3.02 66.6 46.21 63.61v-85.21z" fill="#916846"/><path d="m287.45 228.61-1.69-38.21-.07-.11-86.42 57.41 31.46 28.18 56.77-47.21z" fill="#aa7b4f"/><path d="m171.02 280.22v44.82l74.49 102.55 3.02-66.6z" fill="#aa7b4f"/><path d="m238.96 174.11 2.75 45.39 90.65-60.21v-35.66z" fill="#babcbe"/><path d="m215.81 262.52-3.27 60.96v.01l79.18 82.5v-75.49z" fill="#8e8e91"/><path d="m238.96 174.11 2.75 45.39-42.44 28.2-28.25-25.3v-11.57z" fill="#aba9b0"/><path d="m171.02 222.4v57.82l41.52 43.26 3.27-60.96z" fill="#a0a0a3"/><path d="m332.36 159.29h30v37.09h-30z" fill="#996c5b"/><path d="m38 280.22h30v45.62h-30z" fill="#996c5b"/><path d="m325.72 289.35h-30a4 4 0 0 0 -4 4v202.65h30v-202.65a4 4 0 0 1 4-4z" fill="#a88373"/><path d="m362.36 85.71a4 4 0 0 1 4-4h-30a4 4 0 0 0 -4 4v73.58h30z" fill="#a88373"/><path d="m72 170.48h-30a4 4 0 0 0 -4 4v105.74h30v-105.74a4 4 0 0 1 4-4z" fill="#a88373"/><path d="m362.37 363.74v26.93a1.993 1.993 0 0 1 -2 2h-37.27a2 2 0 0 1 -2-2v-26.93a20.635 20.635 0 1 1 41.27 0z" fill="#b57768"/><g fill="#284268"><path d="m341.739 338.106a25.664 25.664 0 0 0 -25.639 25.635v26.932a7.008 7.008 0 0 0 7 7h37.27a7.008 7.008 0 0 0 7-7v-26.932a25.664 25.664 0 0 0 -25.631-25.635zm15.635 49.567h-31.274v-23.932a15.635 15.635 0 0 1 31.27 0z"/><path d="m107.6 211.049a24.174 24.174 0 0 0 -24.142 24.151v22.189a7.008 7.008 0 0 0 7 7h34.293a7.008 7.008 0 0 0 7-7v-22.189a24.174 24.174 0 0 0 -24.151-24.151zm14.147 43.336h-28.289v-19.185a14.147 14.147 0 1 1 28.293 0z"/><path d="m383.747 107.964a18.124 18.124 0 0 0 -18.1 18.1v11.125a7.008 7.008 0 0 0 7 7h22.207a7.008 7.008 0 0 0 7-7v-11.121a18.125 18.125 0 0 0 -18.107-18.104zm8.1 26.229h-16.203v-8.125a8.1 8.1 0 1 1 16.207 0z"/><path d="m38 330.844h131.06l117.657 161.984v3.172a5 5 0 0 0 5 5h182.283a5 5 0 0 0 5-5v-202.653a9.011 9.011 0 0 0 -9-9h-174.283a9.011 9.011 0 0 0 -9 9v25.966l-48.341-43.3 91-75.653a4.961 4.961 0 0 0 2.989 1.013h105.918a5 5 0 0 0 5-5v-110.667a9.011 9.011 0 0 0 -9-9h-44.364l.316-20.475 31.314-14.657a5.746 5.746 0 0 0 -.092-10.448l-30.623-13.69.037-2.359a5 5 0 1 0 -10-.154l-.955 61.783h-43.554a9.01 9.01 0 0 0 -9 9v34.941l-151.345 81.792v-27.956a9.011 9.011 0 0 0 -9-9h-56.2l.7-45.951 58.953-27.593a6.349 6.349 0 0 0 -.1-11.546l-57.87-25.872.105-6.941a5 5 0 1 0 -10-.151l-1.79 118.054h-58.815a9.011 9.011 0 0 0 -9 9v151.361a5 5 0 0 0 5 5zm367.42 160.156h-23.878v-65.685a28.946 28.946 0 0 1 23.878-28.474zm33.878 0h-23.878v-94.159a28.946 28.946 0 0 1 23.88 28.474zm-142.581-35.4h11.237a5 5 0 0 0 0-10h-11.237v-151.253h39.53v20.764a5 5 0 0 0 10 0v-20.764h31.795v20.764a5 5 0 0 0 10 0v-20.764h34.492v20.764a5 5 0 0 0 10 0v-20.764h36.466v196.653h-19.7v-65.685a38.878 38.878 0 1 0 -77.756 0v65.685h-74.827zm93.949-427.286 18.22 8.146-18.479 8.649zm-53.3 58.392h23.034v9.018a5 5 0 0 0 10 0v-9.018h26.4v9.018a5 5 0 0 0 10 0v-9.018h26.479v67.583h-95.917zm0 77.583h95.921v9.8h-15.587a5 5 0 0 0 0 10h15.579v7.285h-95.917zm-50.649 311.523-36.133-49.746 2.416-53.2 33.717 35.134zm0-143.074v60.821l-69.07-71.97 2.6-48.385zm-55.87-63.465-23.43-20.985 73.734-48.979 1.2 27.143zm96.515-80.241-35.355 29.393-1.132-25.575 36.487-24.237zm0-57.017v24.592l-81.18 53.926-2.037-33.545zm-151.345 81.792 58.428-31.577 2.107 34.7-36.831 24.47-23.7-21.23zm0 19.783 34.676 31.057-2.529 47.061-32.147-33.5zm0 59.063 67.426 70.256-2.28 50.187-65.146-89.69zm-63.683-227.253 46.666 20.865-47.318 22.147zm-69.334 110.083h24.068v19.955a5 5 0 0 0 10 0v-19.955h57.412v19.955a5 5 0 0 0 10 0v-19.955h21.537v99.739h-123.017zm0 131.746h10.436a5 5 0 0 0 0-10h-10.436v-12.007h123.017v35.622h-123.017z"/></g></svg>