<svg height="512" viewBox="0 0 64 64" width="512" xmlns="http://www.w3.org/2000/svg"><g id="flat"><path d="m47 25h-2v-4a3 3 0 0 0 -3-3h-3v-2h3a5.006 5.006 0 0 1 5 5z" fill="#f9bb4b"/><path d="m54 33-2-1-4 4v3l-3 3v15h-4v-12l-2-2h-24l-5 5v9h-4v-11l4-4v-11h34l9-9 6 6z" fill="#995f5b"/><path d="m20 11h12v10h-12z" fill="#ffd782"/><path d="m27 14h2v2h-2z" fill="#394d5c"/><path d="m23 3h6a2 2 0 0 1 2 2v2a0 0 0 0 1 0 0h-10a0 0 0 0 1 0 0v-2a2 2 0 0 1 2-2z" fill="#995f5b"/><path d="m20 11h4a0 0 0 0 1 0 0v2a4 4 0 0 1 -4 4 0 0 0 0 1 0 0v-6a0 0 0 0 1 0 0z" fill="#394d5c"/><path d="m20 21h12v10h-12z" fill="#66342e" transform="matrix(-1 0 0 -1 52 52)"/><path d="m20 31v4a4 4 0 0 0 4 4h4v-8z" fill="#ffd782"/><rect fill="#ceac9a" height="4" rx="2" width="20" x="16" y="7"/><path d="m32 31h4a0 0 0 0 1 0 0v4a4 4 0 0 1 -4 4 0 0 0 0 1 0 0v-8a0 0 0 0 1 0 0z" fill="#ffd782"/><path d="m28 25h10l2-8a2 2 0 0 0 -2-2 2 2 0 0 0 -2 2l-1 4h-7a2 2 0 0 0 -2 2 2 2 0 0 0 2 2z" fill="#d3843d"/><path d="m45 42 8 8v5h-4v-3l-4-4z" fill="#66342e"/><path d="m15 43v7l5 5 3-3-4-4 5-5z" fill="#66342e"/><g fill="#301a12"><path d="m23 58-3-3 3-3a2.828 2.828 0 0 1 4 0l1 1z"/><path d="m49 55h4a2 2 0 0 1 2 2v2a0 0 0 0 1 0 0h-6a0 0 0 0 1 0 0v-4a0 0 0 0 1 0 0z"/><path d="m41 57h5a2 2 0 0 1 2 2v2a0 0 0 0 1 0 0h-7a0 0 0 0 1 0 0v-4a0 0 0 0 1 0 0z"/><path d="m6 57h4a2 2 0 0 1 2 2v2a0 0 0 0 1 0 0h-6a0 0 0 0 1 0 0v-4a0 0 0 0 1 0 0z"/></g><path d="m47.21 39.79-1.45 1.45-2.47-2.53a5.8 5.8 0 0 0 -4.29-1.71 4 4 0 0 1 -4-4v-2h2v2a2.006 2.006 0 0 0 2 2 7.893 7.893 0 0 1 5.71 2.29z" fill="#f9bb4b"/><path d="m28 43h4a2 2 0 0 1 2 2v2a0 0 0 0 1 0 0h-6a0 0 0 0 1 0 0v-4a0 0 0 0 1 0 0z" fill="#143441"/><path d="m52 36.24a5.225 5.225 0 0 1 -3.707-1.533l-4.449-4.474 1.392-1.392 4.471 4.452a3.247 3.247 0 0 0 4.586 0l1-1 1.414 1.414-1 1a5.225 5.225 0 0 1 -3.707 1.533z" fill="#f9bb4b"/><path d="m13 38h2v2h-2z" fill="#ceac9a"/><path d="m15 36h2v2h-2z" fill="#ceac9a"/><path d="m10 37a6 6 0 0 1 6-6h-6a4 4 0 0 0 -4 4v2c-2.209 0-3 1.791-3 4h3a4 4 0 0 0 4-4z" fill="#66342e"/><path d="m52 26h2v2h-2z" fill="#301a12"/><path d="m27 21-7 7v-7z" fill="#9c2d20"/><path d="m59 28-5 5 2 1c2 1 3 0 4-1l1-1v-2z" fill="#ceac9a"/><path d="m32 31v12h-4v-8h-4a4 4 0 0 1 -4-4z" fill="#2d75bb"/><path d="m50 19a4.242 4.242 0 0 0 0 6l3-3z" fill="#66342e"/><path d="m44 25a4.242 4.242 0 0 0 0 6l6-6-3-3z" fill="#66342e"/></g></svg>