<svg id="Layer_1" enable-background="new 0 0 512 512" height="512" viewBox="0 0 512 512" width="512" xmlns="http://www.w3.org/2000/svg"><g><path d="m259.241 110.387c-4.614-7.618-14.53-10.051-22.146-5.439l-21.822 13.217 45.916-2.875c-.37-1.687-1.004-3.344-1.948-4.903z"/><path d="m485.239 107.133-132.817 11.257c4.378 4.142 9.368 9.045 14.559 14.49l119.387-15.014c2.853-.363 4.95-2.918 4.704-5.811-.251-2.97-2.863-5.173-5.833-4.922z"/><path d="m271.522 144.885 11.589-20.621-79.485 6.736v20.362l5.588 1.358z"/><path d="m120.406 392.598 7.753 111.891c.293 4.229 3.81 7.511 8.049 7.511 4.266 0 7.796-3.322 8.054-7.58l6.463-106.59 25.109-26.316h-48.079z"/><path d="m275.367 365.958-4.025 43.913 9.035 94.825c.395 4.141 3.872 7.303 8.032 7.303h.336c4.208 0 7.709-3.233 8.043-7.427l12.645-158.64c-9.834 8.753-21.379 15.621-34.066 20.026z"/><path d="m394.204 189.161c-11.466-23.309-35.56-48.866-54.682-66.387-5.069-4.644-11.695-7.208-18.57-7.208v-18.181c0-3.884-5.128-5.29-7.118-1.969l-130.822 233.599c-8.577 14.827-27.726 19.729-42.409 10.689-14.152-8.713-18.396-27.398-10.075-41.783l36.679-63.404-4.747-4.781 15.499 8.464-38.096 65.854c-5.352 9.25-2.19 21.087 7.06 26.438 9.25 5.352 21.088 2.19 26.438-7.06l48.026-83.021c5.438-9.399 2.073-21.458-7.475-26.671l-17.601-9.612c-12.954-3.15-25.659-6.239-39.958-9.716-7.972-1.938-13.4-8.924-13.74-16.729l-1.722-40.051 11.691 37.169c1.695 5.388 6.084 9.496 11.572 10.83l55.528 13.501c8.658 2.103 17.285-3.198 19.441-11.708 2.199-8.681-3.53-17.613-12.232-19.729l-46.275-11.252-9.725-30.919 12.822 20.994 7.914 1.924v-33.386c0-18.33-14.842-33.309-33.309-33.309h-21.318c-18.396 0-33.309 14.913-33.309 33.309v74.124c0 17.055 11.332 31.544 27.054 36.164-2.125.323-19.148-2.292-35.232 10.905-6.402.42-13.307.657-19.737.736-.688.214-16.049-1.346-28.911 11.695-14.251 14.534-14.067 26.022-25.955 130.401 20.446 0 37.67-12.515 44.98-29.976 5.966-14.251 3.709-23.612 0-53.573-1.129-9.117-7.602-25.981.498-32.656 3.627-2.209 4.223-2.788 13.339-2.565-1.188 4.185-1.837 8.597-1.837 13.163v75.909l-15.063 43.215 7.753 111.891c.293 4.229 3.81 7.511 8.049 7.511 4.266 0 7.796-3.322 8.054-7.58l6.463-106.59 36.56-38.316h94.34l13.832 145.183c.395 4.141 3.872 7.303 8.032 7.303h.387c4.186 0 7.677-3.202 8.038-7.372l12.875-148.648c37.078-10.777 64.179-44.999 64.179-85.554 0-14.512 0-51.298 0-65.52l20.293.383 13.358 8.131c7.395 4.502 17.156 2.513 22.142-4.739l6.27-9.12c2.131-3.103 2.386-7.079.752-10.4zm-63.469-36.198c-2.041 0-3.696-1.655-3.696-3.696 0-2.042 1.655-3.696 3.696-3.696s3.696 1.655 3.696 3.696-1.654 3.696-3.696 3.696z"/><ellipse cx="147.658" cy="35.674" rx="35.673" ry="35.673" transform="matrix(.936 -.352 .352 .936 -3.1 54.316)"/></g></svg>